<svg id="visual" viewBox="0 0 900 600" width="900" height="600" xmlns="http://www.w3.org/2000/svg" xmlns:xlink="http://www.w3.org/1999/xlink" version="1.1"><rect x="0" y="0" width="900" height="600" fill="#ffffff"></rect><defs><linearGradient id="grad1_0" x1="33.3%" y1="100%" x2="100%" y2="0%"><stop offset="20%" stop-color="#ffffff" stop-opacity="1"></stop><stop offset="80%" stop-color="#ffffff" stop-opacity="1"></stop></linearGradient></defs><defs><linearGradient id="grad2_0" x1="0%" y1="100%" x2="66.7%" y2="0%"><stop offset="20%" stop-color="#ffffff" stop-opacity="1"></stop><stop offset="80%" stop-color="#ffffff" stop-opacity="1"></stop></linearGradient></defs><g transform="translate(900, 600)"><path d="M-243.4 0C-240.5 -48.6 -237.6 -97.2 -210.8 -121.7C-183.9 -146.2 -133.1 -146.6 -94 -162.8C-54.9 -179.1 -27.4 -211.2 0 -243.4L0 0Z" fill="#3b82f6"></path></g><g transform="translate(0, 0)"><path d="M243.4 0C211.7 27.7 180 55.4 163.7 94.5C147.4 133.6 146.4 184.1 121.7 210.8C97 237.5 48.5 240.4 0 243.4L0 0Z" fill="#3b82f6"></path></g></svg>