<svg id="visual" viewBox="0 0 900 600" width="900" height="600" xmlns="http://www.w3.org/2000/svg" xmlns:xlink="http://www.w3.org/1999/xlink" version="1.1"><rect x="0" y="0" width="900" height="600" fill="#001220"></rect><path d="M0 432L21.5 431.2C43 430.3 86 428.7 128.8 428.8C171.7 429 214.3 431 257.2 433.7C300 436.3 343 439.7 385.8 441C428.7 442.3 471.3 441.7 514.2 436C557 430.3 600 419.7 642.8 411.3C685.7 403 728.3 397 771.2 396.3C814 395.7 857 400.3 878.5 402.7L900 405L900 601L878.5 601C857 601 814 601 771.2 601C728.3 601 685.7 601 642.8 601C600 601 557 601 514.2 601C471.3 601 428.7 601 385.8 601C343 601 300 601 257.2 601C214.3 601 171.7 601 128.8 601C86 601 43 601 21.5 601L0 601Z" fill="#69a0fa"></path><path d="M0 403L21.5 403.5C43 404 86 405 128.8 406.2C171.7 407.3 214.3 408.7 257.2 409C300 409.3 343 408.7 385.8 414.8C428.7 421 471.3 434 514.2 439C557 444 600 441 642.8 439.5C685.7 438 728.3 438 771.2 445C814 452 857 466 878.5 473L900 480L900 601L878.5 601C857 601 814 601 771.2 601C728.3 601 685.7 601 642.8 601C600 601 557 601 514.2 601C471.3 601 428.7 601 385.8 601C343 601 300 601 257.2 601C214.3 601 171.7 601 128.8 601C86 601 43 601 21.5 601L0 601Z" fill="#5f85ec"></path><path d="M0 474L21.5 479.7C43 485.3 86 496.7 128.8 493.2C171.7 489.7 214.3 471.3 257.2 467C300 462.7 343 472.3 385.8 475C428.7 477.7 471.3 473.3 514.2 471.8C557 470.3 600 471.7 642.8 477.2C685.7 482.7 728.3 492.3 771.2 493.3C814 494.3 857 486.7 878.5 482.8L900 479L900 601L878.5 601C857 601 814 601 771.2 601C728.3 601 685.7 601 642.8 601C600 601 557 601 514.2 601C471.3 601 428.7 601 385.8 601C343 601 300 601 257.2 601C214.3 601 171.7 601 128.8 601C86 601 43 601 21.5 601L0 601Z" fill="#5d68db"></path><path d="M0 516L21.5 515.5C43 515 86 514 128.8 508.2C171.7 502.3 214.3 491.7 257.2 492.8C300 494 343 507 385.8 508C428.7 509 471.3 498 514.2 494.7C557 491.3 600 495.7 642.8 504.8C685.7 514 728.3 528 771.2 529.5C814 531 857 520 878.5 514.5L900 509L900 601L878.5 601C857 601 814 601 771.2 601C728.3 601 685.7 601 642.8 601C600 601 557 601 514.2 601C471.3 601 428.7 601 385.8 601C343 601 300 601 257.2 601C214.3 601 171.7 601 128.8 601C86 601 43 601 21.5 601L0 601Z" fill="#6149c6"></path><path d="M0 527L21.5 532C43 537 86 547 128.8 549.7C171.7 552.3 214.3 547.7 257.2 544.3C300 541 343 539 385.8 541C428.7 543 471.3 549 514.2 554.8C557 560.7 600 566.3 642.8 566.3C685.7 566.3 728.3 560.7 771.2 560.7C814 560.7 857 566.3 878.5 569.2L900 572L900 601L878.5 601C857 601 814 601 771.2 601C728.3 601 685.7 601 642.8 601C600 601 557 601 514.2 601C471.3 601 428.7 601 385.8 601C343 601 300 601 257.2 601C214.3 601 171.7 601 128.8 601C86 601 43 601 21.5 601L0 601Z" fill="#6721ad"></path></svg>