<svg id="visual" viewBox="0 0 1920 1080" width="1920" height="1080" xmlns="http://www.w3.org/2000/svg" xmlns:xlink="http://www.w3.org/1999/xlink" version="1.1"><rect x="0" y="0" width="1920" height="1080" fill="#f3f4f6"></rect><path d="M0 772L64 764.2C128 756.3 256 740.7 384 746.2C512 751.7 640 778.3 768 797.2C896 816 1024 827 1152 824.2C1280 821.3 1408 804.7 1536 776.2C1664 747.7 1792 707.3 1856 687.2L1920 667L1920 1081L1856 1081C1792 1081 1664 1081 1536 1081C1408 1081 1280 1081 1152 1081C1024 1081 896 1081 768 1081C640 1081 512 1081 384 1081C256 1081 128 1081 64 1081L0 1081Z" fill="#2b7fff"></path><path d="M0 704L64 714.8C128 725.7 256 747.3 384 778.3C512 809.3 640 849.7 768 857.2C896 864.7 1024 839.3 1152 812.8C1280 786.3 1408 758.7 1536 755.8C1664 753 1792 775 1856 786L1920 797L1920 1081L1856 1081C1792 1081 1664 1081 1536 1081C1408 1081 1280 1081 1152 1081C1024 1081 896 1081 768 1081C640 1081 512 1081 384 1081C256 1081 128 1081 64 1081L0 1081Z" fill="#246ce4"></path><path d="M0 802L64 819.7C128 837.3 256 872.7 384 866.2C512 859.7 640 811.3 768 812.3C896 813.3 1024 863.7 1152 891.5C1280 919.3 1408 924.7 1536 907.8C1664 891 1792 852 1856 832.5L1920 813L1920 1081L1856 1081C1792 1081 1664 1081 1536 1081C1408 1081 1280 1081 1152 1081C1024 1081 896 1081 768 1081C640 1081 512 1081 384 1081C256 1081 128 1081 64 1081L0 1081Z" fill="#1c59c9"></path><path d="M0 867L64 870.7C128 874.3 256 881.7 384 898.3C512 915 640 941 768 951.5C896 962 1024 957 1152 954.5C1280 952 1408 952 1536 936C1664 920 1792 888 1856 872L1920 856L1920 1081L1856 1081C1792 1081 1664 1081 1536 1081C1408 1081 1280 1081 1152 1081C1024 1081 896 1081 768 1081C640 1081 512 1081 384 1081C256 1081 128 1081 64 1081L0 1081Z" fill="#1047af"></path><path d="M0 1020L64 1010.8C128 1001.7 256 983.3 384 983.5C512 983.7 640 1002.3 768 998.8C896 995.3 1024 969.7 1152 971.8C1280 974 1408 1004 1536 1014.2C1664 1024.3 1792 1014.7 1856 1009.8L1920 1005L1920 1081L1856 1081C1792 1081 1664 1081 1536 1081C1408 1081 1280 1081 1152 1081C1024 1081 896 1081 768 1081C640 1081 512 1081 384 1081C256 1081 128 1081 64 1081L0 1081Z" fill="#003695"></path></svg>